<mxfile host="app.diagrams.net" modified="2023-12-05T04:26:11.154Z" agent="Mozilla/5.0 (Windows NT 10.0; Win64; x64) AppleWebKit/537.36 (KHTML, like Gecko) Chrome/119.0.0.0 Safari/537.36" etag="hHBsyhnlFsPXldKIfciV" version="22.1.5" type="github">
  <diagram name="Page-1" id="TpQ7VKjghwiPL2PNO3WY">
    <mxGraphModel dx="1796" dy="542" grid="1" gridSize="10" guides="1" tooltips="1" connect="1" arrows="1" fold="1" page="1" pageScale="1" pageWidth="850" pageHeight="1100" math="0" shadow="0">
      <root>
        <mxCell id="0" />
        <mxCell id="1" parent="0" />
        <mxCell id="UaZCbBsOmPF74wfXTQtx-5" style="edgeStyle=orthogonalEdgeStyle;rounded=0;orthogonalLoop=1;jettySize=auto;html=1;" edge="1" parent="1" source="UaZCbBsOmPF74wfXTQtx-8" target="UaZCbBsOmPF74wfXTQtx-2">
          <mxGeometry relative="1" as="geometry" />
        </mxCell>
        <mxCell id="UaZCbBsOmPF74wfXTQtx-1" value="WebClient&lt;br&gt;&lt;br&gt;api/v1/catelog/getcatelogs" style="rounded=0;whiteSpace=wrap;html=1;" vertex="1" parent="1">
          <mxGeometry x="20" y="150" width="170" height="280" as="geometry" />
        </mxCell>
        <mxCell id="UaZCbBsOmPF74wfXTQtx-23" style="edgeStyle=orthogonalEdgeStyle;rounded=0;orthogonalLoop=1;jettySize=auto;html=1;entryX=0.75;entryY=0;entryDx=0;entryDy=0;" edge="1" parent="1" source="UaZCbBsOmPF74wfXTQtx-2" target="UaZCbBsOmPF74wfXTQtx-3">
          <mxGeometry relative="1" as="geometry">
            <Array as="points">
              <mxPoint x="590" y="250" />
              <mxPoint x="590" y="250" />
            </Array>
          </mxGeometry>
        </mxCell>
        <mxCell id="UaZCbBsOmPF74wfXTQtx-2" value="MicroService&lt;br&gt;Order" style="rounded=1;whiteSpace=wrap;html=1;" vertex="1" parent="1">
          <mxGeometry x="500" y="160" width="120" height="60" as="geometry" />
        </mxCell>
        <mxCell id="UaZCbBsOmPF74wfXTQtx-3" value="MicroService&lt;br&gt;Catelog" style="rounded=1;whiteSpace=wrap;html=1;" vertex="1" parent="1">
          <mxGeometry x="500" y="300" width="120" height="60" as="geometry" />
        </mxCell>
        <mxCell id="UaZCbBsOmPF74wfXTQtx-4" value="MicroService&lt;br&gt;Payment" style="rounded=1;whiteSpace=wrap;html=1;" vertex="1" parent="1">
          <mxGeometry x="500" y="420" width="120" height="60" as="geometry" />
        </mxCell>
        <mxCell id="UaZCbBsOmPF74wfXTQtx-9" value="" style="edgeStyle=orthogonalEdgeStyle;rounded=0;orthogonalLoop=1;jettySize=auto;html=1;" edge="1" parent="1" source="UaZCbBsOmPF74wfXTQtx-1" target="UaZCbBsOmPF74wfXTQtx-8">
          <mxGeometry relative="1" as="geometry">
            <mxPoint x="160" y="290" as="sourcePoint" />
            <mxPoint x="500" y="190" as="targetPoint" />
          </mxGeometry>
        </mxCell>
        <mxCell id="UaZCbBsOmPF74wfXTQtx-13" style="edgeStyle=orthogonalEdgeStyle;rounded=0;orthogonalLoop=1;jettySize=auto;html=1;" edge="1" parent="1" source="UaZCbBsOmPF74wfXTQtx-8" target="UaZCbBsOmPF74wfXTQtx-4">
          <mxGeometry relative="1" as="geometry" />
        </mxCell>
        <mxCell id="UaZCbBsOmPF74wfXTQtx-14" style="edgeStyle=orthogonalEdgeStyle;rounded=0;orthogonalLoop=1;jettySize=auto;html=1;" edge="1" parent="1" source="UaZCbBsOmPF74wfXTQtx-8" target="UaZCbBsOmPF74wfXTQtx-3">
          <mxGeometry relative="1" as="geometry" />
        </mxCell>
        <mxCell id="UaZCbBsOmPF74wfXTQtx-8" value="" style="rounded=1;whiteSpace=wrap;html=1;" vertex="1" parent="1">
          <mxGeometry x="320" y="150" width="20" height="280" as="geometry" />
        </mxCell>
        <mxCell id="UaZCbBsOmPF74wfXTQtx-12" style="edgeStyle=orthogonalEdgeStyle;rounded=0;orthogonalLoop=1;jettySize=auto;html=1;entryX=1;entryY=0.75;entryDx=0;entryDy=0;exitX=0;exitY=1;exitDx=0;exitDy=-15;exitPerimeter=0;" edge="1" parent="1" source="UaZCbBsOmPF74wfXTQtx-10" target="UaZCbBsOmPF74wfXTQtx-3">
          <mxGeometry relative="1" as="geometry" />
        </mxCell>
        <mxCell id="UaZCbBsOmPF74wfXTQtx-10" value="" style="shape=cylinder3;whiteSpace=wrap;html=1;boundedLbl=1;backgroundOutline=1;size=15;" vertex="1" parent="1">
          <mxGeometry x="750" y="300" width="40" height="60" as="geometry" />
        </mxCell>
        <mxCell id="UaZCbBsOmPF74wfXTQtx-11" style="edgeStyle=orthogonalEdgeStyle;rounded=0;orthogonalLoop=1;jettySize=auto;html=1;entryX=0;entryY=0.5;entryDx=0;entryDy=0;entryPerimeter=0;" edge="1" parent="1" source="UaZCbBsOmPF74wfXTQtx-3" target="UaZCbBsOmPF74wfXTQtx-10">
          <mxGeometry relative="1" as="geometry" />
        </mxCell>
        <mxCell id="UaZCbBsOmPF74wfXTQtx-15" value="Pic&lt;br&gt;Description&lt;br&gt;Price" style="rounded=1;whiteSpace=wrap;html=1;" vertex="1" parent="1">
          <mxGeometry x="30" y="160" width="150" height="60" as="geometry" />
        </mxCell>
        <mxCell id="UaZCbBsOmPF74wfXTQtx-16" value="Pic&lt;br&gt;Description&lt;br&gt;Price" style="rounded=1;whiteSpace=wrap;html=1;" vertex="1" parent="1">
          <mxGeometry x="30" y="230" width="150" height="50" as="geometry" />
        </mxCell>
        <mxCell id="UaZCbBsOmPF74wfXTQtx-17" value="" style="endArrow=none;html=1;rounded=0;" edge="1" parent="1">
          <mxGeometry width="50" height="50" relative="1" as="geometry">
            <mxPoint x="660" y="360" as="sourcePoint" />
            <mxPoint x="710" y="310" as="targetPoint" />
          </mxGeometry>
        </mxCell>
        <mxCell id="UaZCbBsOmPF74wfXTQtx-18" value="" style="endArrow=none;html=1;rounded=0;" edge="1" parent="1">
          <mxGeometry width="50" height="50" relative="1" as="geometry">
            <mxPoint x="700" y="360" as="sourcePoint" />
            <mxPoint x="670" y="310" as="targetPoint" />
          </mxGeometry>
        </mxCell>
        <mxCell id="UaZCbBsOmPF74wfXTQtx-19" style="edgeStyle=orthogonalEdgeStyle;rounded=0;orthogonalLoop=1;jettySize=auto;html=1;entryX=0.301;entryY=1.047;entryDx=0;entryDy=0;entryPerimeter=0;" edge="1" parent="1" source="UaZCbBsOmPF74wfXTQtx-3" target="UaZCbBsOmPF74wfXTQtx-2">
          <mxGeometry relative="1" as="geometry" />
        </mxCell>
        <mxCell id="UaZCbBsOmPF74wfXTQtx-20" value="api/v1/order/placeorder/catelogid, order id" style="edgeLabel;html=1;align=center;verticalAlign=middle;resizable=0;points=[];" vertex="1" connectable="0" parent="UaZCbBsOmPF74wfXTQtx-19">
          <mxGeometry x="0.0463" y="-1" relative="1" as="geometry">
            <mxPoint as="offset" />
          </mxGeometry>
        </mxCell>
        <mxCell id="UaZCbBsOmPF74wfXTQtx-21" value="" style="endArrow=none;html=1;rounded=0;" edge="1" parent="1">
          <mxGeometry width="50" height="50" relative="1" as="geometry">
            <mxPoint x="520" y="215" as="sourcePoint" />
            <mxPoint x="570" y="165" as="targetPoint" />
          </mxGeometry>
        </mxCell>
        <mxCell id="UaZCbBsOmPF74wfXTQtx-22" value="" style="endArrow=none;html=1;rounded=0;" edge="1" parent="1">
          <mxGeometry width="50" height="50" relative="1" as="geometry">
            <mxPoint x="560" y="215" as="sourcePoint" />
            <mxPoint x="530" y="165" as="targetPoint" />
          </mxGeometry>
        </mxCell>
        <mxCell id="UaZCbBsOmPF74wfXTQtx-24" value="Sync way of communication" style="text;html=1;strokeColor=none;fillColor=none;align=center;verticalAlign=middle;whiteSpace=wrap;rounded=0;" vertex="1" parent="1">
          <mxGeometry x="30" y="80" width="210" height="50" as="geometry" />
        </mxCell>
        <mxCell id="UaZCbBsOmPF74wfXTQtx-25" value="ASync way of communication" style="text;html=1;strokeColor=none;fillColor=none;align=center;verticalAlign=middle;whiteSpace=wrap;rounded=0;" vertex="1" parent="1">
          <mxGeometry x="10" y="520" width="210" height="50" as="geometry" />
        </mxCell>
        <mxCell id="UaZCbBsOmPF74wfXTQtx-26" value="Webclient&lt;br&gt;GetCatelog Data&lt;br&gt;&lt;br&gt;Subscribed to CateglogResultQueue" style="rounded=0;whiteSpace=wrap;html=1;" vertex="1" parent="1">
          <mxGeometry x="30" y="610" width="140" height="300" as="geometry" />
        </mxCell>
        <mxCell id="UaZCbBsOmPF74wfXTQtx-27" value="MicroService&lt;br&gt;Order" style="rounded=1;whiteSpace=wrap;html=1;" vertex="1" parent="1">
          <mxGeometry x="540" y="600" width="120" height="60" as="geometry" />
        </mxCell>
        <mxCell id="UaZCbBsOmPF74wfXTQtx-49" style="edgeStyle=orthogonalEdgeStyle;rounded=0;orthogonalLoop=1;jettySize=auto;html=1;" edge="1" parent="1" source="UaZCbBsOmPF74wfXTQtx-28" target="UaZCbBsOmPF74wfXTQtx-48">
          <mxGeometry relative="1" as="geometry" />
        </mxCell>
        <mxCell id="UaZCbBsOmPF74wfXTQtx-28" value="MicroService&lt;br&gt;Catelog&lt;br&gt;1. Get catelogs" style="rounded=1;whiteSpace=wrap;html=1;" vertex="1" parent="1">
          <mxGeometry x="530" y="780" width="120" height="60" as="geometry" />
        </mxCell>
        <mxCell id="UaZCbBsOmPF74wfXTQtx-29" value="MicroService&lt;br&gt;Payment" style="rounded=1;whiteSpace=wrap;html=1;" vertex="1" parent="1">
          <mxGeometry x="540" y="910" width="120" height="60" as="geometry" />
        </mxCell>
        <mxCell id="UaZCbBsOmPF74wfXTQtx-35" style="edgeStyle=orthogonalEdgeStyle;rounded=0;orthogonalLoop=1;jettySize=auto;html=1;" edge="1" parent="1" source="UaZCbBsOmPF74wfXTQtx-31" target="UaZCbBsOmPF74wfXTQtx-28">
          <mxGeometry relative="1" as="geometry" />
        </mxCell>
        <mxCell id="UaZCbBsOmPF74wfXTQtx-31" value="CatelogQueue" style="verticalLabelPosition=bottom;html=1;verticalAlign=top;align=center;strokeColor=none;fillColor=#00BEF2;shape=mxgraph.azure.queue_generic;pointerEvents=1;" vertex="1" parent="1">
          <mxGeometry x="240" y="735" width="130" height="45" as="geometry" />
        </mxCell>
        <mxCell id="UaZCbBsOmPF74wfXTQtx-32" style="edgeStyle=orthogonalEdgeStyle;rounded=0;orthogonalLoop=1;jettySize=auto;html=1;entryX=0;entryY=0.5;entryDx=0;entryDy=0;entryPerimeter=0;" edge="1" parent="1" source="UaZCbBsOmPF74wfXTQtx-26" target="UaZCbBsOmPF74wfXTQtx-31">
          <mxGeometry relative="1" as="geometry" />
        </mxCell>
        <mxCell id="UaZCbBsOmPF74wfXTQtx-33" value="M1" style="edgeLabel;html=1;align=center;verticalAlign=middle;resizable=0;points=[];" vertex="1" connectable="0" parent="UaZCbBsOmPF74wfXTQtx-32">
          <mxGeometry x="-0.1162" y="-2" relative="1" as="geometry">
            <mxPoint as="offset" />
          </mxGeometry>
        </mxCell>
        <mxCell id="UaZCbBsOmPF74wfXTQtx-36" style="edgeStyle=orthogonalEdgeStyle;rounded=0;orthogonalLoop=1;jettySize=auto;html=1;entryX=0;entryY=0.5;entryDx=0;entryDy=0;" edge="1" parent="1" source="UaZCbBsOmPF74wfXTQtx-34" target="UaZCbBsOmPF74wfXTQtx-27">
          <mxGeometry relative="1" as="geometry" />
        </mxCell>
        <mxCell id="UaZCbBsOmPF74wfXTQtx-34" value="Order Queue" style="verticalLabelPosition=bottom;html=1;verticalAlign=top;align=center;strokeColor=none;fillColor=#00BEF2;shape=mxgraph.azure.queue_generic;pointerEvents=1;" vertex="1" parent="1">
          <mxGeometry x="400" y="635" width="110" height="20" as="geometry" />
        </mxCell>
        <mxCell id="UaZCbBsOmPF74wfXTQtx-37" value="" style="shape=cylinder3;whiteSpace=wrap;html=1;boundedLbl=1;backgroundOutline=1;size=15;" vertex="1" parent="1">
          <mxGeometry x="750" y="595" width="40" height="60" as="geometry" />
        </mxCell>
        <mxCell id="UaZCbBsOmPF74wfXTQtx-38" style="edgeStyle=orthogonalEdgeStyle;rounded=0;orthogonalLoop=1;jettySize=auto;html=1;entryX=0.169;entryY=0.464;entryDx=0;entryDy=0;entryPerimeter=0;" edge="1" parent="1" source="UaZCbBsOmPF74wfXTQtx-27" target="UaZCbBsOmPF74wfXTQtx-37">
          <mxGeometry relative="1" as="geometry" />
        </mxCell>
        <mxCell id="UaZCbBsOmPF74wfXTQtx-39" style="edgeStyle=orthogonalEdgeStyle;rounded=0;orthogonalLoop=1;jettySize=auto;html=1;entryX=0.996;entryY=0.909;entryDx=0;entryDy=0;entryPerimeter=0;exitX=0;exitY=1;exitDx=0;exitDy=-15;exitPerimeter=0;" edge="1" parent="1" source="UaZCbBsOmPF74wfXTQtx-37" target="UaZCbBsOmPF74wfXTQtx-27">
          <mxGeometry relative="1" as="geometry" />
        </mxCell>
        <mxCell id="UaZCbBsOmPF74wfXTQtx-45" style="edgeStyle=orthogonalEdgeStyle;rounded=0;orthogonalLoop=1;jettySize=auto;html=1;entryX=1;entryY=0.75;entryDx=0;entryDy=0;" edge="1" parent="1" source="UaZCbBsOmPF74wfXTQtx-43" target="UaZCbBsOmPF74wfXTQtx-26">
          <mxGeometry relative="1" as="geometry" />
        </mxCell>
        <mxCell id="UaZCbBsOmPF74wfXTQtx-43" value="CatelogResultQueue&lt;br&gt;&lt;br&gt;{&lt;br&gt;&amp;nbsp; &amp;nbsp;CatelogId&lt;br&gt;}" style="verticalLabelPosition=bottom;html=1;verticalAlign=top;align=center;strokeColor=none;fillColor=#00BEF2;shape=mxgraph.azure.queue_generic;pointerEvents=1;" vertex="1" parent="1">
          <mxGeometry x="245" y="820" width="120" height="40" as="geometry" />
        </mxCell>
        <mxCell id="UaZCbBsOmPF74wfXTQtx-44" style="edgeStyle=orthogonalEdgeStyle;rounded=0;orthogonalLoop=1;jettySize=auto;html=1;entryX=1;entryY=0.51;entryDx=0;entryDy=0;entryPerimeter=0;" edge="1" parent="1" source="UaZCbBsOmPF74wfXTQtx-28" target="UaZCbBsOmPF74wfXTQtx-43">
          <mxGeometry relative="1" as="geometry" />
        </mxCell>
        <mxCell id="UaZCbBsOmPF74wfXTQtx-47" value="Locked" style="text;html=1;strokeColor=none;fillColor=none;align=center;verticalAlign=middle;whiteSpace=wrap;rounded=0;" vertex="1" parent="1">
          <mxGeometry x="360" y="710" width="60" height="30" as="geometry" />
        </mxCell>
        <mxCell id="UaZCbBsOmPF74wfXTQtx-48" value="" style="shape=cylinder3;whiteSpace=wrap;html=1;boundedLbl=1;backgroundOutline=1;size=15;" vertex="1" parent="1">
          <mxGeometry x="750" y="780" width="40" height="60" as="geometry" />
        </mxCell>
        <mxCell id="UaZCbBsOmPF74wfXTQtx-50" style="edgeStyle=orthogonalEdgeStyle;rounded=0;orthogonalLoop=1;jettySize=auto;html=1;entryX=0.209;entryY=1.001;entryDx=0;entryDy=0;entryPerimeter=0;" edge="1" parent="1" source="UaZCbBsOmPF74wfXTQtx-52" target="UaZCbBsOmPF74wfXTQtx-27">
          <mxGeometry relative="1" as="geometry" />
        </mxCell>
        <mxCell id="UaZCbBsOmPF74wfXTQtx-52" value="Catelog_Order_Queue" style="verticalLabelPosition=bottom;html=1;verticalAlign=top;align=center;strokeColor=none;fillColor=#00BEF2;shape=mxgraph.azure.queue_generic;pointerEvents=1;" vertex="1" parent="1">
          <mxGeometry x="545" y="710" width="75" height="20" as="geometry" />
        </mxCell>
        <mxCell id="UaZCbBsOmPF74wfXTQtx-55" style="edgeStyle=orthogonalEdgeStyle;rounded=0;orthogonalLoop=1;jettySize=auto;html=1;entryX=0.5;entryY=1;entryDx=0;entryDy=0;entryPerimeter=0;" edge="1" parent="1" source="UaZCbBsOmPF74wfXTQtx-28" target="UaZCbBsOmPF74wfXTQtx-52">
          <mxGeometry relative="1" as="geometry" />
        </mxCell>
        <mxCell id="UaZCbBsOmPF74wfXTQtx-57" value="MicroService&lt;br&gt;Cart" style="rounded=1;whiteSpace=wrap;html=1;" vertex="1" parent="1">
          <mxGeometry x="540" y="515" width="120" height="60" as="geometry" />
        </mxCell>
        <mxCell id="UaZCbBsOmPF74wfXTQtx-59" style="edgeStyle=orthogonalEdgeStyle;rounded=0;orthogonalLoop=1;jettySize=auto;html=1;" edge="1" parent="1" source="UaZCbBsOmPF74wfXTQtx-58">
          <mxGeometry relative="1" as="geometry">
            <mxPoint x="170" y="640" as="targetPoint" />
            <Array as="points">
              <mxPoint x="220" y="540" />
              <mxPoint x="210" y="540" />
              <mxPoint x="210" y="640" />
            </Array>
          </mxGeometry>
        </mxCell>
        <mxCell id="UaZCbBsOmPF74wfXTQtx-58" value="Cart Queue" style="verticalLabelPosition=bottom;html=1;verticalAlign=top;align=center;strokeColor=none;fillColor=#00BEF2;shape=mxgraph.azure.queue_generic;pointerEvents=1;" vertex="1" parent="1">
          <mxGeometry x="215" y="545" width="150" height="50" as="geometry" />
        </mxCell>
        <mxCell id="UaZCbBsOmPF74wfXTQtx-60" style="edgeStyle=orthogonalEdgeStyle;rounded=0;orthogonalLoop=1;jettySize=auto;html=1;entryX=0.5;entryY=0;entryDx=0;entryDy=0;entryPerimeter=0;" edge="1" parent="1" source="UaZCbBsOmPF74wfXTQtx-57" target="UaZCbBsOmPF74wfXTQtx-34">
          <mxGeometry relative="1" as="geometry">
            <Array as="points">
              <mxPoint x="600" y="590" />
              <mxPoint x="455" y="590" />
            </Array>
          </mxGeometry>
        </mxCell>
        <mxCell id="UaZCbBsOmPF74wfXTQtx-62" value="Subscriber" style="edgeLabel;html=1;align=center;verticalAlign=middle;resizable=0;points=[];" vertex="1" connectable="0" parent="UaZCbBsOmPF74wfXTQtx-60">
          <mxGeometry x="0.5448" relative="1" as="geometry">
            <mxPoint as="offset" />
          </mxGeometry>
        </mxCell>
        <mxCell id="UaZCbBsOmPF74wfXTQtx-61" style="edgeStyle=orthogonalEdgeStyle;rounded=0;orthogonalLoop=1;jettySize=auto;html=1;entryX=1;entryY=0.51;entryDx=0;entryDy=0;entryPerimeter=0;" edge="1" parent="1" source="UaZCbBsOmPF74wfXTQtx-57" target="UaZCbBsOmPF74wfXTQtx-58">
          <mxGeometry relative="1" as="geometry" />
        </mxCell>
        <mxCell id="UaZCbBsOmPF74wfXTQtx-63" value="Publisher" style="edgeLabel;html=1;align=center;verticalAlign=middle;resizable=0;points=[];" vertex="1" connectable="0" parent="UaZCbBsOmPF74wfXTQtx-61">
          <mxGeometry x="0.0328" y="-2" relative="1" as="geometry">
            <mxPoint x="2" y="1" as="offset" />
          </mxGeometry>
        </mxCell>
        <mxCell id="UaZCbBsOmPF74wfXTQtx-64" value="{&lt;br&gt;&amp;nbsp; &amp;nbsp; &amp;nbsp; &amp;nbsp; &amp;nbsp; &amp;nbsp; &amp;nbsp; &amp;nbsp; &amp;nbsp;catelogId&lt;br&gt;&amp;nbsp; &amp;nbsp; &amp;nbsp; &amp;nbsp; &amp;nbsp; &amp;nbsp; &amp;nbsp; userid&lt;br&gt;&amp;nbsp; &amp;nbsp; &amp;nbsp; &amp;nbsp; &amp;nbsp; &amp;nbsp; &amp;nbsp; &amp;nbsp; SessionId&lt;br&gt;}" style="text;html=1;strokeColor=none;fillColor=none;align=center;verticalAlign=middle;whiteSpace=wrap;rounded=0;" vertex="1" parent="1">
          <mxGeometry x="640" y="690" width="150" height="50" as="geometry" />
        </mxCell>
        <mxCell id="UaZCbBsOmPF74wfXTQtx-65" value="{&lt;br&gt;&amp;nbsp; &amp;nbsp; &amp;nbsp; &amp;nbsp; &amp;nbsp; &amp;nbsp; &amp;nbsp; &amp;nbsp; &amp;nbsp;catelogId&lt;br&gt;&amp;nbsp; &amp;nbsp; &amp;nbsp; &amp;nbsp; &amp;nbsp; &amp;nbsp; &amp;nbsp;OrderId&lt;br&gt;&amp;nbsp; &amp;nbsp; &amp;nbsp; &amp;nbsp; &amp;nbsp; &amp;nbsp; &amp;nbsp; userid&lt;br&gt;&amp;nbsp; &amp;nbsp; &amp;nbsp; &amp;nbsp; &amp;nbsp; &amp;nbsp; &amp;nbsp; &amp;nbsp; SessionId&lt;br&gt;}" style="text;html=1;strokeColor=none;fillColor=none;align=center;verticalAlign=middle;whiteSpace=wrap;rounded=0;" vertex="1" parent="1">
          <mxGeometry x="410" y="635" width="150" height="50" as="geometry" />
        </mxCell>
        <mxCell id="UaZCbBsOmPF74wfXTQtx-66" value="" style="swimlane;startSize=0;" vertex="1" parent="1">
          <mxGeometry x="400" y="500" width="330" height="495" as="geometry" />
        </mxCell>
        <mxCell id="UaZCbBsOmPF74wfXTQtx-67" value="WebClient" style="rounded=0;whiteSpace=wrap;html=1;fillColor=#dae8fc;strokeColor=#6c8ebf;" vertex="1" parent="1">
          <mxGeometry x="40" y="1120" width="110" height="400" as="geometry" />
        </mxCell>
        <mxCell id="UaZCbBsOmPF74wfXTQtx-68" value="Deployment Model" style="text;html=1;strokeColor=none;fillColor=none;align=center;verticalAlign=middle;whiteSpace=wrap;rounded=0;" vertex="1" parent="1">
          <mxGeometry x="30" y="1100" width="60" height="30" as="geometry" />
        </mxCell>
        <mxCell id="UaZCbBsOmPF74wfXTQtx-69" value="" style="rounded=0;whiteSpace=wrap;html=1;fillColor=#d5e8d4;strokeColor=#82b366;" vertex="1" parent="1">
          <mxGeometry x="200" y="1110" width="690" height="690" as="geometry" />
        </mxCell>
        <mxCell id="UaZCbBsOmPF74wfXTQtx-70" value="LB&lt;br&gt;Rules&lt;br&gt;/catalog -&amp;gt;&amp;nbsp;&lt;br&gt;/order -&amp;gt;" style="outlineConnect=0;dashed=0;verticalLabelPosition=bottom;verticalAlign=top;align=center;html=1;shape=mxgraph.aws3.application_load_balancer;fillColor=#F58536;gradientColor=none;" vertex="1" parent="1">
          <mxGeometry x="215" y="1304.5" width="45" height="51" as="geometry" />
        </mxCell>
        <mxCell id="UaZCbBsOmPF74wfXTQtx-71" value="VM" style="rounded=1;whiteSpace=wrap;html=1;" vertex="1" parent="1">
          <mxGeometry x="417.5" y="1220" width="330" height="250" as="geometry" />
        </mxCell>
        <mxCell id="UaZCbBsOmPF74wfXTQtx-73" value="Catelog Service&lt;br&gt;Port 5001" style="outlineConnect=0;dashed=0;verticalLabelPosition=bottom;verticalAlign=top;align=center;html=1;shape=mxgraph.aws3.ec2_compute_container_2;fillColor=#F58534;gradientColor=none;" vertex="1" parent="1">
          <mxGeometry x="450" y="1240" width="60" height="34.5" as="geometry" />
        </mxCell>
        <mxCell id="UaZCbBsOmPF74wfXTQtx-120" style="edgeStyle=orthogonalEdgeStyle;rounded=0;orthogonalLoop=1;jettySize=auto;html=1;" edge="1" parent="1" source="UaZCbBsOmPF74wfXTQtx-74">
          <mxGeometry relative="1" as="geometry">
            <mxPoint x="335.0344827586209" y="1470.0000000000002" as="targetPoint" />
          </mxGeometry>
        </mxCell>
        <mxCell id="UaZCbBsOmPF74wfXTQtx-74" value="Order&lt;br&gt;Port 5002" style="outlineConnect=0;dashed=0;verticalLabelPosition=bottom;verticalAlign=top;align=center;html=1;shape=mxgraph.aws3.ec2_compute_container_2;fillColor=#F58534;gradientColor=none;" vertex="1" parent="1">
          <mxGeometry x="455" y="1360" width="60" height="34.5" as="geometry" />
        </mxCell>
        <mxCell id="UaZCbBsOmPF74wfXTQtx-81" style="edgeStyle=orthogonalEdgeStyle;rounded=0;orthogonalLoop=1;jettySize=auto;html=1;" edge="1" parent="1" source="UaZCbBsOmPF74wfXTQtx-75" target="UaZCbBsOmPF74wfXTQtx-78">
          <mxGeometry relative="1" as="geometry" />
        </mxCell>
        <mxCell id="UaZCbBsOmPF74wfXTQtx-92" value="" style="edgeStyle=orthogonalEdgeStyle;rounded=0;orthogonalLoop=1;jettySize=auto;html=1;entryX=0.5;entryY=1;entryDx=0;entryDy=0;entryPerimeter=0;" edge="1" parent="1" source="UaZCbBsOmPF74wfXTQtx-75" target="UaZCbBsOmPF74wfXTQtx-93">
          <mxGeometry relative="1" as="geometry">
            <mxPoint x="720" y="1170.0000000000002" as="targetPoint" />
          </mxGeometry>
        </mxCell>
        <mxCell id="UaZCbBsOmPF74wfXTQtx-75" value="Cart&lt;br&gt;Port : 5003" style="outlineConnect=0;dashed=0;verticalLabelPosition=bottom;verticalAlign=top;align=center;html=1;shape=mxgraph.aws3.ec2_compute_container_2;fillColor=#F58534;gradientColor=none;" vertex="1" parent="1">
          <mxGeometry x="660" y="1240" width="60" height="34.5" as="geometry" />
        </mxCell>
        <mxCell id="UaZCbBsOmPF74wfXTQtx-76" style="edgeStyle=orthogonalEdgeStyle;rounded=0;orthogonalLoop=1;jettySize=auto;html=1;entryX=0.005;entryY=0.482;entryDx=0;entryDy=0;entryPerimeter=0;" edge="1" parent="1" source="UaZCbBsOmPF74wfXTQtx-70" target="UaZCbBsOmPF74wfXTQtx-71">
          <mxGeometry relative="1" as="geometry" />
        </mxCell>
        <mxCell id="UaZCbBsOmPF74wfXTQtx-85" value="api/v1/catalog/ id" style="edgeLabel;html=1;align=center;verticalAlign=middle;resizable=0;points=[];" vertex="1" connectable="0" parent="UaZCbBsOmPF74wfXTQtx-76">
          <mxGeometry x="-0.3264" y="-3" relative="1" as="geometry">
            <mxPoint as="offset" />
          </mxGeometry>
        </mxCell>
        <mxCell id="UaZCbBsOmPF74wfXTQtx-78" value="DB" style="strokeWidth=2;html=1;shape=mxgraph.flowchart.database;whiteSpace=wrap;" vertex="1" parent="1">
          <mxGeometry x="800" y="1300" width="40" height="50" as="geometry" />
        </mxCell>
        <mxCell id="UaZCbBsOmPF74wfXTQtx-80" style="edgeStyle=orthogonalEdgeStyle;rounded=0;orthogonalLoop=1;jettySize=auto;html=1;entryX=0;entryY=0.5;entryDx=0;entryDy=0;entryPerimeter=0;" edge="1" parent="1" source="UaZCbBsOmPF74wfXTQtx-73" target="UaZCbBsOmPF74wfXTQtx-78">
          <mxGeometry relative="1" as="geometry" />
        </mxCell>
        <mxCell id="UaZCbBsOmPF74wfXTQtx-82" style="edgeStyle=orthogonalEdgeStyle;rounded=0;orthogonalLoop=1;jettySize=auto;html=1;entryX=0.5;entryY=1;entryDx=0;entryDy=0;entryPerimeter=0;" edge="1" parent="1" source="UaZCbBsOmPF74wfXTQtx-74" target="UaZCbBsOmPF74wfXTQtx-78">
          <mxGeometry relative="1" as="geometry" />
        </mxCell>
        <mxCell id="UaZCbBsOmPF74wfXTQtx-83" value="Security Rules : Only Traffic from VM" style="text;html=1;strokeColor=none;fillColor=none;align=center;verticalAlign=middle;whiteSpace=wrap;rounded=0;" vertex="1" parent="1">
          <mxGeometry x="780" y="1370" width="90" height="40" as="geometry" />
        </mxCell>
        <mxCell id="UaZCbBsOmPF74wfXTQtx-89" style="edgeStyle=orthogonalEdgeStyle;rounded=0;orthogonalLoop=1;jettySize=auto;html=1;" edge="1" parent="1" source="UaZCbBsOmPF74wfXTQtx-84" target="UaZCbBsOmPF74wfXTQtx-75">
          <mxGeometry relative="1" as="geometry" />
        </mxCell>
        <mxCell id="UaZCbBsOmPF74wfXTQtx-90" value="Subscriber&amp;nbsp;" style="edgeLabel;html=1;align=center;verticalAlign=middle;resizable=0;points=[];" vertex="1" connectable="0" parent="UaZCbBsOmPF74wfXTQtx-89">
          <mxGeometry x="0.0286" y="-1" relative="1" as="geometry">
            <mxPoint as="offset" />
          </mxGeometry>
        </mxCell>
        <mxCell id="UaZCbBsOmPF74wfXTQtx-84" value="" style="image;sketch=0;aspect=fixed;html=1;points=[];align=center;fontSize=12;image=img/lib/mscae/Service_Bus.svg;" vertex="1" parent="1">
          <mxGeometry x="580" y="1480" width="40" height="40" as="geometry" />
        </mxCell>
        <mxCell id="UaZCbBsOmPF74wfXTQtx-77" style="edgeStyle=orthogonalEdgeStyle;rounded=0;orthogonalLoop=1;jettySize=auto;html=1;" edge="1" parent="1" source="UaZCbBsOmPF74wfXTQtx-67" target="UaZCbBsOmPF74wfXTQtx-70">
          <mxGeometry relative="1" as="geometry" />
        </mxCell>
        <mxCell id="UaZCbBsOmPF74wfXTQtx-86" style="edgeStyle=orthogonalEdgeStyle;rounded=0;orthogonalLoop=1;jettySize=auto;html=1;entryX=0;entryY=0.5;entryDx=0;entryDy=0;entryPerimeter=0;" edge="1" parent="1" source="UaZCbBsOmPF74wfXTQtx-74" target="UaZCbBsOmPF74wfXTQtx-84">
          <mxGeometry relative="1" as="geometry" />
        </mxCell>
        <mxCell id="UaZCbBsOmPF74wfXTQtx-87" value="Publish { catelogid, userid,&amp;nbsp; orderid }" style="edgeLabel;html=1;align=center;verticalAlign=middle;resizable=0;points=[];" vertex="1" connectable="0" parent="UaZCbBsOmPF74wfXTQtx-86">
          <mxGeometry x="-0.0514" y="2" relative="1" as="geometry">
            <mxPoint x="-5" y="11" as="offset" />
          </mxGeometry>
        </mxCell>
        <mxCell id="UaZCbBsOmPF74wfXTQtx-93" value="" style="verticalLabelPosition=bottom;html=1;verticalAlign=top;align=center;strokeColor=none;fillColor=#00BEF2;shape=mxgraph.azure.storage_queue;" vertex="1" parent="1">
          <mxGeometry x="700" y="1120" width="50" height="45" as="geometry" />
        </mxCell>
        <mxCell id="UaZCbBsOmPF74wfXTQtx-94" value="" style="rounded=0;whiteSpace=wrap;html=1;" vertex="1" parent="1">
          <mxGeometry x="210" y="1830" width="680" height="200" as="geometry" />
        </mxCell>
        <mxCell id="UaZCbBsOmPF74wfXTQtx-95" value="WebClient" style="rounded=0;whiteSpace=wrap;html=1;fillColor=#dae8fc;strokeColor=#6c8ebf;" vertex="1" parent="1">
          <mxGeometry x="45" y="1830" width="115" height="200" as="geometry" />
        </mxCell>
        <mxCell id="UaZCbBsOmPF74wfXTQtx-96" value="" style="outlineConnect=0;dashed=0;verticalLabelPosition=bottom;verticalAlign=top;align=center;html=1;shape=mxgraph.aws3.application_load_balancer;fillColor=#F58536;gradientColor=none;" vertex="1" parent="1">
          <mxGeometry x="230" y="1930" width="45" height="51" as="geometry" />
        </mxCell>
        <mxCell id="UaZCbBsOmPF74wfXTQtx-98" value="" style="rounded=1;whiteSpace=wrap;html=1;" vertex="1" parent="1">
          <mxGeometry x="500" y="1860" width="270" height="130" as="geometry" />
        </mxCell>
        <mxCell id="UaZCbBsOmPF74wfXTQtx-99" value="Catelog Master Service" style="outlineConnect=0;dashed=0;verticalLabelPosition=bottom;verticalAlign=top;align=center;html=1;shape=mxgraph.aws3.ec2_compute_container_2;fillColor=#F58534;gradientColor=none;" vertex="1" parent="1">
          <mxGeometry x="545" y="1883" width="60" height="34.5" as="geometry" />
        </mxCell>
        <mxCell id="UaZCbBsOmPF74wfXTQtx-100" style="edgeStyle=orthogonalEdgeStyle;rounded=0;orthogonalLoop=1;jettySize=auto;html=1;entryX=0.004;entryY=0.422;entryDx=0;entryDy=0;entryPerimeter=0;" edge="1" parent="1" source="UaZCbBsOmPF74wfXTQtx-96" target="UaZCbBsOmPF74wfXTQtx-98">
          <mxGeometry relative="1" as="geometry" />
        </mxCell>
        <mxCell id="UaZCbBsOmPF74wfXTQtx-102" value="" style="verticalLabelPosition=bottom;html=1;verticalAlign=top;align=center;strokeColor=none;fillColor=#00BEF2;shape=mxgraph.azure.queue_generic;pointerEvents=1;" vertex="1" parent="1">
          <mxGeometry x="810" y="1700" width="70" height="25" as="geometry" />
        </mxCell>
        <mxCell id="UaZCbBsOmPF74wfXTQtx-103" style="edgeStyle=orthogonalEdgeStyle;rounded=0;orthogonalLoop=1;jettySize=auto;html=1;entryX=0.432;entryY=0.92;entryDx=0;entryDy=0;entryPerimeter=0;" edge="1" parent="1" source="UaZCbBsOmPF74wfXTQtx-99" target="UaZCbBsOmPF74wfXTQtx-102">
          <mxGeometry relative="1" as="geometry">
            <Array as="points">
              <mxPoint x="575" y="1820" />
              <mxPoint x="840" y="1820" />
            </Array>
          </mxGeometry>
        </mxCell>
        <mxCell id="UaZCbBsOmPF74wfXTQtx-104" value="Catelog Sync" style="outlineConnect=0;dashed=0;verticalLabelPosition=bottom;verticalAlign=top;align=center;html=1;shape=mxgraph.aws3.ec2_compute_container_2;fillColor=#F58534;gradientColor=none;" vertex="1" parent="1">
          <mxGeometry x="605" y="1380" width="60" height="34.5" as="geometry" />
        </mxCell>
        <mxCell id="UaZCbBsOmPF74wfXTQtx-106" style="edgeStyle=orthogonalEdgeStyle;rounded=0;orthogonalLoop=1;jettySize=auto;html=1;entryX=0;entryY=0.85;entryDx=0;entryDy=0;entryPerimeter=0;" edge="1" parent="1" source="UaZCbBsOmPF74wfXTQtx-104" target="UaZCbBsOmPF74wfXTQtx-78">
          <mxGeometry relative="1" as="geometry" />
        </mxCell>
        <mxCell id="UaZCbBsOmPF74wfXTQtx-107" style="edgeStyle=orthogonalEdgeStyle;rounded=0;orthogonalLoop=1;jettySize=auto;html=1;entryX=0.5;entryY=0;entryDx=0;entryDy=0;entryPerimeter=0;" edge="1" parent="1" source="UaZCbBsOmPF74wfXTQtx-104" target="UaZCbBsOmPF74wfXTQtx-102">
          <mxGeometry relative="1" as="geometry" />
        </mxCell>
        <mxCell id="UaZCbBsOmPF74wfXTQtx-111" value="VM" style="rounded=1;whiteSpace=wrap;html=1;" vertex="1" parent="1">
          <mxGeometry x="425" y="1540" width="330" height="250" as="geometry" />
        </mxCell>
        <mxCell id="UaZCbBsOmPF74wfXTQtx-112" value="Catelog Service&lt;br&gt;Port 5001" style="outlineConnect=0;dashed=0;verticalLabelPosition=bottom;verticalAlign=top;align=center;html=1;shape=mxgraph.aws3.ec2_compute_container_2;fillColor=#F58534;gradientColor=none;" vertex="1" parent="1">
          <mxGeometry x="457.5" y="1560" width="60" height="34.5" as="geometry" />
        </mxCell>
        <mxCell id="UaZCbBsOmPF74wfXTQtx-122" style="edgeStyle=orthogonalEdgeStyle;rounded=0;orthogonalLoop=1;jettySize=auto;html=1;entryX=0.5;entryY=1;entryDx=0;entryDy=0;" edge="1" parent="1" source="UaZCbBsOmPF74wfXTQtx-113">
          <mxGeometry relative="1" as="geometry">
            <mxPoint x="335" y="1570" as="targetPoint" />
          </mxGeometry>
        </mxCell>
        <mxCell id="UaZCbBsOmPF74wfXTQtx-113" value="Order&lt;br&gt;Port 5002" style="outlineConnect=0;dashed=0;verticalLabelPosition=bottom;verticalAlign=top;align=center;html=1;shape=mxgraph.aws3.ec2_compute_container_2;fillColor=#F58534;gradientColor=none;" vertex="1" parent="1">
          <mxGeometry x="462.5" y="1680" width="60" height="34.5" as="geometry" />
        </mxCell>
        <mxCell id="UaZCbBsOmPF74wfXTQtx-114" value="Cart&lt;br&gt;Port : 5003" style="outlineConnect=0;dashed=0;verticalLabelPosition=bottom;verticalAlign=top;align=center;html=1;shape=mxgraph.aws3.ec2_compute_container_2;fillColor=#F58534;gradientColor=none;" vertex="1" parent="1">
          <mxGeometry x="667.5" y="1560" width="60" height="34.5" as="geometry" />
        </mxCell>
        <mxCell id="UaZCbBsOmPF74wfXTQtx-115" value="Catelog Sync" style="outlineConnect=0;dashed=0;verticalLabelPosition=bottom;verticalAlign=top;align=center;html=1;shape=mxgraph.aws3.ec2_compute_container_2;fillColor=#F58534;gradientColor=none;" vertex="1" parent="1">
          <mxGeometry x="612.5" y="1700" width="60" height="34.5" as="geometry" />
        </mxCell>
        <mxCell id="UaZCbBsOmPF74wfXTQtx-116" style="edgeStyle=orthogonalEdgeStyle;rounded=0;orthogonalLoop=1;jettySize=auto;html=1;entryX=0.298;entryY=0.95;entryDx=0;entryDy=0;entryPerimeter=0;" edge="1" parent="1" source="UaZCbBsOmPF74wfXTQtx-113" target="UaZCbBsOmPF74wfXTQtx-84">
          <mxGeometry relative="1" as="geometry" />
        </mxCell>
        <mxCell id="UaZCbBsOmPF74wfXTQtx-117" style="edgeStyle=orthogonalEdgeStyle;rounded=0;orthogonalLoop=1;jettySize=auto;html=1;entryX=0;entryY=0.5;entryDx=0;entryDy=0;entryPerimeter=0;" edge="1" parent="1" source="UaZCbBsOmPF74wfXTQtx-84" target="UaZCbBsOmPF74wfXTQtx-114">
          <mxGeometry relative="1" as="geometry" />
        </mxCell>
        <mxCell id="UaZCbBsOmPF74wfXTQtx-123" value="Queue Scale in and Out&lt;br&gt;Vertical and Horizontal scaling" style="text;html=1;strokeColor=none;fillColor=none;align=center;verticalAlign=middle;whiteSpace=wrap;rounded=0;" vertex="1" parent="1">
          <mxGeometry x="-60" y="2070" width="260" height="40" as="geometry" />
        </mxCell>
        <mxCell id="UaZCbBsOmPF74wfXTQtx-129" value="VM" style="rounded=1;whiteSpace=wrap;html=1;" vertex="1" parent="1">
          <mxGeometry x="40" y="2130" width="240" height="170" as="geometry" />
        </mxCell>
        <mxCell id="UaZCbBsOmPF74wfXTQtx-130" value="RabbitMQ" style="outlineConnect=0;dashed=0;verticalLabelPosition=bottom;verticalAlign=top;align=center;html=1;shape=mxgraph.aws3.queue;fillColor=#D9A741;gradientColor=none;" vertex="1" parent="1">
          <mxGeometry x="90" y="2230" width="55" height="35.5" as="geometry" />
        </mxCell>
        <mxCell id="UaZCbBsOmPF74wfXTQtx-131" value="Vertical Scaling : Increase and CPU and RAM for the Node" style="text;html=1;strokeColor=none;fillColor=none;align=center;verticalAlign=middle;whiteSpace=wrap;rounded=0;" vertex="1" parent="1">
          <mxGeometry x="30" y="2120" width="240" height="80" as="geometry" />
        </mxCell>
        <mxCell id="UaZCbBsOmPF74wfXTQtx-132" value="VM" style="rounded=1;whiteSpace=wrap;html=1;" vertex="1" parent="1">
          <mxGeometry x="330" y="2130" width="240" height="170" as="geometry" />
        </mxCell>
        <mxCell id="UaZCbBsOmPF74wfXTQtx-133" value="RabbitMQ" style="outlineConnect=0;dashed=0;verticalLabelPosition=bottom;verticalAlign=top;align=center;html=1;shape=mxgraph.aws3.queue;fillColor=#D9A741;gradientColor=none;" vertex="1" parent="1">
          <mxGeometry x="380" y="2230" width="55" height="35.5" as="geometry" />
        </mxCell>
        <mxCell id="UaZCbBsOmPF74wfXTQtx-134" value="Vertical Scaling : Increase and CPU and RAM for the Node" style="text;html=1;strokeColor=none;fillColor=none;align=center;verticalAlign=middle;whiteSpace=wrap;rounded=0;" vertex="1" parent="1">
          <mxGeometry x="330" y="2130" width="240" height="80" as="geometry" />
        </mxCell>
        <mxCell id="UaZCbBsOmPF74wfXTQtx-135" value="" style="endArrow=none;html=1;rounded=0;" edge="1" parent="1">
          <mxGeometry width="50" height="50" relative="1" as="geometry">
            <mxPoint x="55" y="2330" as="sourcePoint" />
            <mxPoint x="550" y="2330" as="targetPoint" />
          </mxGeometry>
        </mxCell>
        <mxCell id="UaZCbBsOmPF74wfXTQtx-136" value="50 $&lt;br&gt;&lt;br&gt;dev/qa/beta- 30 $ - 4 cpu, 8 gb (resrve instance)&lt;br&gt;Monitoring - Send mail when cpu usga egoes by 80%, scale in and for scale out.&lt;br&gt;&lt;br&gt;Prod - two VM of same 4 cpu and 8gb : auto scaling rules based on usage" style="text;html=1;strokeColor=none;fillColor=none;align=center;verticalAlign=middle;whiteSpace=wrap;rounded=0;" vertex="1" parent="1">
          <mxGeometry x="605" y="2070" width="255" height="130" as="geometry" />
        </mxCell>
        <mxCell id="UaZCbBsOmPF74wfXTQtx-137" value="" style="rounded=0;whiteSpace=wrap;html=1;" vertex="1" parent="1">
          <mxGeometry x="45" y="2420" width="285" height="270" as="geometry" />
        </mxCell>
        <mxCell id="UaZCbBsOmPF74wfXTQtx-138" value="Queue Message format" style="text;html=1;strokeColor=none;fillColor=none;align=center;verticalAlign=middle;whiteSpace=wrap;rounded=0;" vertex="1" parent="1">
          <mxGeometry x="10" y="2360" width="210" height="40" as="geometry" />
        </mxCell>
        <mxCell id="UaZCbBsOmPF74wfXTQtx-139" value="" style="rounded=0;whiteSpace=wrap;html=1;" vertex="1" parent="1">
          <mxGeometry x="80" y="2460" width="200" height="180" as="geometry" />
        </mxCell>
        <mxCell id="UaZCbBsOmPF74wfXTQtx-140" value="{&lt;br&gt;&amp;nbsp;&quot;key&quot; : &quot;value&quot;&lt;br&gt;&lt;br&gt;}" style="rounded=0;whiteSpace=wrap;html=1;" vertex="1" parent="1">
          <mxGeometry x="110" y="2490" width="140" height="120" as="geometry" />
        </mxCell>
        <mxCell id="UaZCbBsOmPF74wfXTQtx-144" style="edgeStyle=orthogonalEdgeStyle;rounded=0;orthogonalLoop=1;jettySize=auto;html=1;" edge="1" parent="1" source="UaZCbBsOmPF74wfXTQtx-141" target="UaZCbBsOmPF74wfXTQtx-143">
          <mxGeometry relative="1" as="geometry" />
        </mxCell>
        <mxCell id="UaZCbBsOmPF74wfXTQtx-141" value="Header" style="text;html=1;strokeColor=none;fillColor=none;align=center;verticalAlign=middle;whiteSpace=wrap;rounded=0;" vertex="1" parent="1">
          <mxGeometry x="45" y="2420" width="60" height="30" as="geometry" />
        </mxCell>
        <mxCell id="UaZCbBsOmPF74wfXTQtx-143" value="AMQP Info" style="text;html=1;strokeColor=none;fillColor=none;align=center;verticalAlign=middle;whiteSpace=wrap;rounded=0;" vertex="1" parent="1">
          <mxGeometry x="390" y="2420" width="60" height="30" as="geometry" />
        </mxCell>
        <mxCell id="UaZCbBsOmPF74wfXTQtx-147" style="edgeStyle=orthogonalEdgeStyle;rounded=0;orthogonalLoop=1;jettySize=auto;html=1;entryX=0;entryY=0.5;entryDx=0;entryDy=0;" edge="1" parent="1" source="UaZCbBsOmPF74wfXTQtx-145" target="UaZCbBsOmPF74wfXTQtx-146">
          <mxGeometry relative="1" as="geometry" />
        </mxCell>
        <mxCell id="UaZCbBsOmPF74wfXTQtx-145" value="Properties" style="text;html=1;strokeColor=none;fillColor=none;align=center;verticalAlign=middle;whiteSpace=wrap;rounded=0;" vertex="1" parent="1">
          <mxGeometry x="80" y="2460" width="60" height="30" as="geometry" />
        </mxCell>
        <mxCell id="UaZCbBsOmPF74wfXTQtx-146" value="Key-value, Queue" style="text;html=1;strokeColor=none;fillColor=none;align=center;verticalAlign=middle;whiteSpace=wrap;rounded=0;" vertex="1" parent="1">
          <mxGeometry x="390" y="2460" width="60" height="30" as="geometry" />
        </mxCell>
        <mxCell id="UaZCbBsOmPF74wfXTQtx-148" value="Body" style="text;html=1;strokeColor=none;fillColor=none;align=center;verticalAlign=middle;whiteSpace=wrap;rounded=0;" vertex="1" parent="1">
          <mxGeometry x="110" y="2490" width="60" height="30" as="geometry" />
        </mxCell>
        <mxCell id="UaZCbBsOmPF74wfXTQtx-149" value="" style="rounded=1;whiteSpace=wrap;html=1;" vertex="1" parent="1">
          <mxGeometry x="260" y="1470" width="150" height="100" as="geometry" />
        </mxCell>
        <mxCell id="UaZCbBsOmPF74wfXTQtx-150" value="Container: rabbitMQ, kafka" style="outlineConnect=0;dashed=0;verticalLabelPosition=bottom;verticalAlign=top;align=center;html=1;shape=mxgraph.aws3.queue;fillColor=#D9A741;gradientColor=none;" vertex="1" parent="1">
          <mxGeometry x="302.5" y="1490" width="55" height="35.5" as="geometry" />
        </mxCell>
      </root>
    </mxGraphModel>
  </diagram>
</mxfile>
